<svg id="Layer_1" data-name="Layer 1" xmlns="http://www.w3.org/2000/svg" viewBox="0 0 16 16">
  <defs>
    <style>.off-white {
      fill: #f7feff;
    }

    .black-rasin {
      fill: #231e2b;
    }

    .grey-1 {
      fill: #b6b7b8;
    }</style>
  </defs>
  <title>cloud</title>
  <rect class="off-white" x="3" y="13" width="10" height="1"/>
  <rect class="off-white" x="13" y="12" width="1" height="1"/>
  <rect class="black-rasin" x="3" y="12" width="10" height="1"/>
  <rect class="off-white" x="2" y="12" width="1" height="1"/>
  <rect class="off-white" x="14" y="11" width="1" height="1"/>
  <rect class="black-rasin" x="13" y="11" width="1" height="1"/>
  <rect class="grey-1" x="3" y="11" width="1" height="1"/>
  <rect class="black-rasin" x="2" y="11" width="1" height="1"/>
  <rect class="off-white" x="1" y="11" width="1" height="1"/>
  <rect class="grey-1" x="2" y="10" width="1" height="1"/>
  <rect class="black-rasin" x="1" y="8" width="1" height="3"/>
  <rect class="black-rasin" x="14" y="8" width="1" height="3"/>
  <rect class="grey-1" x="10" y="9" width="1" height="1"/>
  <rect class="off-white" y="8" width="1" height="3"/>
  <rect class="off-white" x="15" y="8" width="1" height="3"/>
  <polygon class="off-white"
           points="12 8 12 9 11 9 11 10 10 10 10 9 11 9 11 8 12 8 12 7 11 7 11 6 10 6 10 5 6 5 6 6 5 6 5 7 6 7 6 8 7 8 7 9 6 9 6 8 5 8 5 7 3 7 3 8 2 8 2 10 3 10 3 11 4 11 4 12 13 12 13 11 14 11 14 8 12 8"/>
  <rect class="grey-1" x="11" y="8" width="1" height="1"/>
  <rect class="grey-1" x="6" y="8" width="1" height="1"/>
  <rect class="off-white" x="14" y="7" width="1" height="1"/>
  <rect class="black-rasin" x="12" y="7" width="2" height="1"/>
  <rect class="grey-1" x="5" y="7" width="1" height="1"/>
  <rect class="black-rasin" x="2" y="7" width="1" height="1"/>
  <rect class="off-white" x="1" y="7" width="1" height="1"/>
  <rect class="off-white" x="12" y="6" width="2" height="1"/>
  <rect class="black-rasin" x="11" y="6" width="1" height="1"/>
  <rect class="black-rasin" x="3" y="6" width="2" height="1"/>
  <rect class="off-white" x="2" y="6" width="1" height="1"/>
  <rect class="off-white" x="11" y="5" width="1" height="1"/>
  <rect class="black-rasin" x="10" y="5" width="1" height="1"/>
  <rect class="black-rasin" x="5" y="5" width="1" height="1"/>
  <rect class="off-white" x="3" y="5" width="2" height="1"/>
  <rect class="off-white" x="10" y="4" width="1" height="1"/>
  <rect class="black-rasin" x="6" y="4" width="4" height="1"/>
  <rect class="off-white" x="5" y="4" width="1" height="1"/>
  <rect class="off-white" x="6" y="3" width="4" height="1"/>
</svg>
