<svg id="Layer_1" data-name="Layer 1" xmlns="http://www.w3.org/2000/svg" viewBox="0 0 16 16">
  <defs>
    <style>.off-white {
      fill: #f7feff;
    }

    .black-rasin {
      fill: #231e2b;
    }

    .limestone {
      fill: #c7936b;
    }

    .dark-aquamarine {
      fill: #356e69;
    }

    .cucumber {
      fill: #4fab59;
    }

    .porcelain {
      fill: #e8be9b;
    }

    .lemon {
      fill: #acc756;
    }</style>
  </defs>
  <title>pointing_finger</title>
  <rect class="off-white" x="1" y="15" width="11" height="1"/>
  <rect class="off-white" x="12" y="14" width="1" height="1"/>
  <path class="black-rasin" d="M6,14V3H1V15H12V14ZM2,14V4H5V14Z"/>
  <rect class="off-white" x="13" y="13" width="1" height="1"/>
  <rect class="black-rasin" x="12" y="13" width="1" height="1"/>
  <rect class="limestone" x="6" y="13" width="6" height="1"/>
  <rect class="dark-aquamarine" x="2" y="13" width="3" height="1"/>
  <rect class="off-white" y="3" width="1" height="12"/>
  <rect class="off-white" x="12" y="12" width="1" height="1"/>
  <rect class="black-rasin" x="11" y="12" width="1" height="1"/>
  <path class="cucumber" d="M5,13V4H4V5H2v8ZM3,11H4v1H3Z"/>
  <rect class="off-white" x="13" y="10" width="1" height="2"/>
  <rect class="dark-aquamarine" x="3" y="11" width="1" height="1"/>
  <rect class="black-rasin" x="12" y="10" width="1" height="2"/>
  <rect class="off-white" x="12" y="9" width="1" height="1"/>
  <rect class="black-rasin" x="11" y="9" width="1" height="1"/>
  <rect class="off-white" x="13" y="7" width="1" height="2"/>
  <rect class="off-white" x="14" y="6" width="1" height="1"/>
  <polygon class="black-rasin" points="11 6 11 7 12 7 12 9 13 9 13 7 14 7 14 6 11 6"/>
  <rect class="off-white" x="15" y="4" width="1" height="2"/>
  <rect class="black-rasin" x="14" y="4" width="1" height="2"/>
  <polygon class="porcelain"
           points="9 4 9 2 7 2 7 3 6 3 6 13 11 13 11 12 12 12 12 10 11 10 11 9 12 9 12 7 11 7 11 6 14 6 14 4 9 4"/>
  <rect class="lemon" x="2" y="4" width="2" height="1"/>
  <rect class="off-white" x="14" y="3" width="1" height="1"/>
  <rect class="off-white" x="10" y="2" width="4" height="1"/>
  <polygon class="black-rasin" points="9 4 14 4 14 3 10 3 10 2 9 2 9 4"/>
  <rect class="black-rasin" x="6" y="2" width="1" height="1"/>
  <rect class="off-white" x="1" y="2" width="5" height="1"/>
  <rect class="off-white" x="9" y="1" width="1" height="1"/>
  <rect class="black-rasin" x="7" y="1" width="2" height="1"/>
  <rect class="off-white" x="6" y="1" width="1" height="1"/>
  <rect class="off-white" x="7" width="2" height="1"/>
</svg>
